# AST/ASF file generated using VICON BodyLanguage
# -----------------------------------------------
:version 1.10
:name VICON
:units
  mass 1.0
  length 0.45
  angle deg
:documentation
   .ast/.asf automatically generated from VICON data using
   VICON BodyBuilder and BodyLanguage model FoxedUp or BRILLIANT.MOD
:root
   order TX TY TZ RX RY RZ
   axis XYZ
   position 0 0 0  
   orientation 0 0 0 
:bonedata
  begin
     id 1 
     name lhipjoint
     direction 0.650112 -0.723553 0.232005 
     length 2.45805 
     axis 0 0 0  XYZ
  end
  begin
     id 2 
     name lfemur
     direction 0.34202 -0.939693 0  
     length 7.00073  
     axis 0 0 20  XYZ
    dof rx ry rz
    limits (-160.0 20.0)
           (-70.0 70.0)
           (-60.0 70.0)
  end
  begin
     id 3 
     name ltibia
     direction 0.34202 -0.939693 0   
     length 7.8748   
     axis 0 0 20   XYZ
    dof rx
    limits (-10.0 170.0)
  end
  begin
     id 4 
     name lfoot
     direction 0.0542825 -0.14914 0.987325   
     length 1.75978   
     axis -90 7.62852e-016 20   XYZ
    dof rx rz
    limits (-45.0 90.0)
           (-70.0 20.0)
  end
  begin
     id 5 
     name ltoes
     direction 1.53509e-011 -4.21906e-011 1   
     length 0.893912   
     axis -90 7.62852e-016 20   XYZ
    dof rx
    limits (-90.0 20.0)
  end
  begin
     id 6 
     name rhipjoint
     direction -0.637897 -0.733345 0.235145   
     length 2.42522  
     axis 0 0 0  XYZ 
  end
  begin
     id 7 
     name rfemur
     direction -0.34202 -0.939693 0   
     length 7.02549   
     axis 0 0 -20   XYZ
    dof rx ry rz
    limits (-160.0 20.0)
           (-70.0 70.0)
           (-70.0 60.0)
  end
  begin
     id 8 
     name rtibia
     direction -0.34202 -0.939693 0   
     length 7.71512   
     axis 0 0 -20   XYZ
    dof rx
    limits (-10.0 170.0)
 end
 begin
     id 9 
     name rfoot
     direction -0.0822618 -0.226012 0.970645   
     length 1.90014  
     axis -90 -7.62852e-016 -20   XYZ
    dof rx rz
    limits (-45.0 90.0)
           (-20.0 70.0)
  end
  begin
     id 10 
     name rtoes
     direction -1.53542e-011 -4.21872e-011 1   
     length 0.957341   
     axis -90 -7.62852e-016 -20   XYZ
    dof rx
    limits (-90.0 20.0)
  end
  begin
     id 11 
     name lowerback
     direction -0.0022947 0.999774 -0.0211557   
     length 1.89909   
     axis 0 0 0   XYZ
    dof rx ry rz
    limits (-20.0 45.0)
           (-30.0 30.0)
           (-30.0 30.0)
  end
  begin
     id 12 
     name upperback
     direction 0.0107737 0.998635 0.0511027   
     length 1.8853   
     axis 0 0 0   XYZ
    dof rx ry rz
    limits (-20.0 45.0)
           (-30.0 30.0)
           (-30.0 30.0)
  end
  begin
     id 13 
     name thorax
     direction 0.011824 0.998136 0.0598754   
     length 1.88911   
     axis 0 0 0   XYZ
    dof rx ry rz
    limits (-20.0 45.0)
           (-30.0 30.0)
           (-30.0 30.0)
  end
  begin
     id 14 
     name lowerneck
     direction -0.0685355 0.990319 0.120714   
     length 1.91222   
     axis 0 0 0   XYZ
    dof rx ry rz
    limits (-20.0 45.0)
           (-30.0 30.0)
           (-30.0 30.0)
  end
  begin
     id 15 
     name upperneck
     direction 0.0886204 0.955665 -0.280805   
     length 1.92526   
     axis 0 0 0   XYZ
    dof rx ry rz
    limits (-20.0 45.0)
           (-30.0 30.0)
           (-30.0 30.0)
  end
  begin
     id 16
     name head
     direction 0.0233423 0.993502 -0.111393  
     length 1.96056  
     axis 0 0 0   XYZ
    dof rx ry rz
    limits (-20.0 45.0)
           (-30.0 30.0)
           (-30.0 30.0)
  end
  begin
     id 17 
     name lclavicle
     direction 0.941873 0.32922 0.0670041  
     length 3.31705  
     axis 0 0 0   XYZ
    dof ry rz
    limits (-20.0 10.0)
           (0.0 20.0)
  end
  begin
     id 18 
     name lhumerus
     direction 1 -4.4898e-011 3.38707e-028   
     length 5.29277   
     axis 180 -30 -90   XYZ
    dof rx ry rz
    limits (-60.0 90.0)
           (-90.0 90.0)
           (-90.0 90.0)
  end
  begin
     id 19
     name lradius
     direction 1 -4.48952e-011 1.63213e-028   
     length 2.85226   
     axis 180 -30 -90   XYZ
    dof rx
    limits (-10.0 170.0)
  end
  begin
     id 20
     name lwrist
     direction 1 -4.49001e-011 1.27856e-027   
     length 1.42613   
     axis -1.61767e-015 90 90   XYZ
    dof ry
    limits (-180.0 0.0)
 end
  begin
     id 21 
     name lhand
     direction 1 -4.48976e-011 2.55931e-027   
     length 0.602097   
     axis -1.63363e-015 90 90   XYZ
    dof rx rz
    limits (-90.0 90.0)
           (-45.0 45.0)
  end
  begin
     id 22 
     name lfingers
     direction 1 -4.48986e-011 5.11684e-027   
     length 0.485426   
     axis -3.26723e-015 90 90   XYZ
    dof rx
    limits (0.0 90.0)
  end
  begin
     id 23
     name lthumb
     direction 0.707107 -6.34915e-011 0.707107   
     length 0.696978   
     axis -90 45 -2.25915e-014   XYZ
    dof rx rz
    limits (-45.0 45.0)
           (-45.0 45.0)
  end
  begin
     id 24 
     name rclavicle
     direction -0.939974 0.327078 0.0973096   
     length 3.10337  
     axis 0 0 0   XYZ 
    dof ry rz
    limits (-10.0 20.0)
           (-20.0 0.0)
  end
  begin
     id 25 
     name rhumerus
     direction -1 -4.48975e-011 1.83745e-027  
     length 5.13304   
     axis 180 30 90   XYZ
    dof rx ry rz
    limits (-90.0 60.0)
           (-90.0 90.0)
           (-90.0 90.0)
  end
  begin
     id 26 
     name rradius
     direction -1 -4.48977e-011 7.1775e-029   
     length 2.74305   
     axis 180 30 90   XYZ
    dof rx
    limits (-10.0 170.0)
  end
  begin
     id 27 
     name rwrist
     direction -1 -4.48977e-011 1.27963e-027   
     length 1.37152   
     axis -1.61767e-015 -90 -90   XYZ
    dof ry
    limits (-180.0 0.0)
  end
  begin
     id 28
     name rhand
     direction -1 -4.4888e-011 2.56782e-027   
     length 0.767976   
     axis -1.63363e-015 -90 -90   XYZ
    dof rx rz
    limits (-90.0 90.0)
           (-45.0 45.0)
  end
  begin
     id 29
     name rfingers
     direction -1 -4.48947e-011 5.12384e-027   
     length 0.619162   
     axis -3.26723e-015 -90 -90   XYZ
    dof rx
    limits (0.0 90.0)
  end
  begin
     id 30
     name rthumb
     direction -0.707107 -6.34857e-011 0.707107   
     length 0.888997   
     axis -90 -45 2.25915e-014   XYZ
    dof rx rz
    limits (-45.0 45.0)
           (-45.0 45.0)
  end
:hierarchy
  begin
    root lhipjoint rhipjoint lowerback
    lhipjoint lfemur
    lfemur ltibia
    ltibia lfoot
    lfoot ltoes
    rhipjoint rfemur
    rfemur rtibia
    rtibia rfoot
    rfoot rtoes
    lowerback upperback
    upperback thorax
    thorax lowerneck lclavicle rclavicle
    lowerneck upperneck
    upperneck head
    lclavicle lhumerus
    lhumerus lradius
    lradius lwrist
    lwrist lhand lthumb
    lhand lfingers
    rclavicle rhumerus
    rhumerus rradius
    rradius rwrist
    rwrist rhand rthumb
    rhand rfingers
  end

#!OML:ASF F:\VICON\USERDATA\INSTALL\rory3\rory3.ASF
:FULLY-SPECIFIED
:DEGREES
1
root 0.263726 17.1014 1.42715 -3.24166 2.55873 -3.45525
lowerback -12.2904 0.200559 -1.86819
upperback -8.84637 0.445233 -0.452927
thorax -2.39586 0.300993 0.621426
lowerneck 0.50523 -10.9999 -20.9239
upperneck 22.1856 -18.2913 17.3515
head 10.5961 -9.20518 7.65694
rclavicle 1.86858e-014 -7.95139e-015
rhumerus 59.4146 -24.1978 -84.2789
rradius 69.9315
rwrist -7.62508
rhand -48.3351 5.08583
rfingers 7.12502
rthumb -20.9904 -23.7983
lclavicle 1.86858e-014 -7.95139e-015
lhumerus 52.5894 12.642 83.3908
lradius 68.3895
lwrist 30.0072
lhand -37.1914 42.5308
lfingers 7.12502
lthumb -10.2593 72.2606
rfemur 18.259 8.04319 25.0607
rtibia -2.8625e-014
rfoot -12.3981 -15.0064
rtoes -17.2583
lfemur 8.50061 -20.373 -20.1413
ltibia 18.6543
lfoot -22.5586 14.0416
ltoes -12.4808
2
root 0.262966 17.0995 1.43007 -3.31431 2.56072 -3.45196
lowerback -12.3318 0.191898 -1.92128
upperback -8.81905 0.440124 -0.433258
thorax -2.34531 0.300747 0.671628
lowerneck 0.607928 -11.0017 -20.8662
upperneck 22.2458 -18.2871 17.1988
head 10.5745 -9.21507 7.59674
rclavicle -2.38542e-015 -2.14687e-014
rhumerus 59.2597 -24.7095 -83.9733
rradius 70.0843
rwrist -7.40681
rhand -48.5405 4.55148
rfingers 7.12502
rthumb -21.1877 -24.3107
lclavicle -2.38542e-015 -2.14687e-014
lhumerus 52.1631 13.1564 83.0828
lradius 68.6545
lwrist 30.0144
lhand -37.0384 42.7443
lfingers 7.12502
lthumb -10.1117 72.4813
rfemur 18.3412 8.03412 25.0713
rtibia -1.59028e-014
rfoot -12.3341 -15.0226
rtoes -17.5928
lfemur 8.59899 -20.4026 -20.182
ltibia 18.6597
lfoot -22.6492 14.0839
ltoes -12.4968
3
root 0.260218 17.0971 1.43478 -3.38361 2.56946 -3.48224
lowerback -12.4051 0.172313 -1.94423
upperback -8.79801 0.418789 -0.388487
thorax -2.28376 0.291704 0.729566
lowerneck 0.758377 -10.9731 -20.9114
upperneck 22.3427 -18.2542 17.075
head 10.5655 -9.22145 7.57362
rclavicle -6.75868e-015 1.11319e-014
rhumerus 59.074 -25.1532 -83.6206
rradius 70.176
rwrist -7.06299
rhand -48.8169 3.9816
rfingers 7.12502
rthumb -21.4531 -24.8505
lclavicle -6.75868e-015 1.11319e-014
lhumerus 51.7626 13.7028 82.7171
lradius 68.8079
lwrist 30.0645
lhand -37.2849 42.0639
lfingers 7.12502
lthumb -10.3495 71.7892
rfemur 18.4369 8.01491 25.1226
rtibia 2.54444e-014
rfoot -12.4047 -15.0255
rtoes -17.3544
lfemur 8.6738 -20.3991 -20.1631
ltibia 18.6925
lfoot -22.7869 14.0371
ltoes -12.3373
4
root 0.258333 17.0951 1.4408 -3.48493 2.59167 -3.51538
lowerback -12.5107 0.170898 -1.95941
upperback -8.71001 0.422112 -0.385893
thorax -2.13387 0.292201 0.742363
lowerneck 0.782933 -10.9429 -20.9036
upperneck 22.4866 -18.2173 17.0022
head 10.5968 -9.21068 7.55699
rclavicle -1.55052e-014 9.54166e-015
rhumerus 58.9905 -25.7022 -83.3108
rradius 70.2608
rwrist -7.06498
rhand -49.0464 3.96217
rfingers 7.12502
rthumb -21.6736 -24.8447
lclavicle -1.55052e-014 9.54166e-015
lhumerus 51.4704 14.1476 82.372
lradius 68.9125
lwrist 30.0081
lhand -37.4344 41.4271
lfingers 7.12502
lthumb -10.4937 71.1452
rfemur 18.5705 7.97964 25.177
rtibia -3.49861e-014
rfoot -12.4487 -14.9756
rtoes -17.3291
lfemur 8.80377 -20.4071 -20.1657
ltibia 18.7104
lfoot -22.8231 13.8588
ltoes -11.2185
5
root 0.258392 17.0923 1.44525 -3.55541 2.59131 -3.55076
lowerback -12.6364 0.195889 -1.94181
upperback -8.63331 0.457308 -0.40143
thorax -1.98563 0.306836 0.721337
lowerneck 0.979463 -10.9296 -20.7822
upperneck 22.3883 -18.1902 16.8727
head 10.4888 -9.20801 7.50067
rclavicle -1.19271e-015 -7.95139e-015
rhumerus 58.8422 -26.3197 -83.0011
rradius 70.3742
rwrist -7.15519
rhand -49.118 4.18647
rfingers 7.12502
rthumb -21.7423 -24.6124
lclavicle -1.19271e-015 -7.95139e-015
lhumerus 51.1724 14.5561 82.0775
lradius 69.0738
lwrist 29.9534
lhand -37.4666 41.9029
lfingers 7.12502
lthumb -10.5247 71.6194
rfemur 18.6659 7.96992 25.2286
rtibia 6.36111e-015
rfoot -12.4349 -14.9687
rtoes -17.619
lfemur 8.87956 -20.3517 -20.1431
ltibia 18.7472
lfoot -22.8091 13.6262
ltoes -10.4643
6
root 0.258638 17.0905 1.447 -3.62978 2.65493 -3.50947
lowerback -12.6423 0.224068 -1.95183
upperback -8.61912 0.495714 -0.484896
thorax -1.96774 0.324063 0.644336
lowerneck 1.29592 -10.9312 -20.6289
upperneck 22.2914 -18.2007 16.7026
head 10.3599 -9.23036 7.425
rclavicle 1.31198e-014 1.03368e-014
rhumerus 58.6039 -27.0171 -82.7623
rradius 70.5845
rwrist -7.11624
rhand -49.0987 3.77004
rfingers 7.12502
rthumb -21.7238 -25.031
lclavicle 1.31198e-014 1.03368e-014
lhumerus 50.8163 14.8844 81.6466
lradius 69.1695
lwrist 30
lhand -37.48 41.9843
lfingers 7.12502
lthumb -10.5377 71.7001
rfemur 18.7613 7.90264 25.1901
rtibia -3.18055e-014
rfoot -12.4626 -14.9765
rtoes -17.5273
lfemur 8.94046 -20.3097 -20.1956
ltibia 18.77
lfoot -22.6993 13.7419
ltoes -11.714
7
root 0.258111 17.0874 1.4501 -3.71876 2.65767 -3.54575
lowerback -12.6357 0.264887 -1.89264
upperback -8.61313 0.543548 -0.536492
thorax -1.96471 0.34411 0.562499
lowerneck 1.49023 -10.9151 -20.541
upperneck 22.3738 -18.1995 16.5789
head 10.3301 -9.24306 7.37841
rclavicle -1.15295e-014 -1.74931e-014
rhumerus 58.3477 -27.6843 -82.4076
rradius 70.7394
rwrist -7.17141
rhand -49.1589 3.29859
rfingers 7.12502
rthumb -21.7816 -25.4958
lclavicle -1.15295e-014 -1.74931e-014
lhumerus 50.4258 15.2395 81.1974
lradius 69.1958
lwrist 30.0577
lhand -37.521 41.8328
lfingers 7.12502
lthumb -10.5773 71.5466
rfemur 18.866 7.88755 25.2475
rtibia -6.36111e-015
rfoot -12.4789 -15.0082
rtoes -17.6456
lfemur 9.04746 -20.2784 -20.1851
ltibia 18.775
lfoot -22.6365 13.8776
ltoes -12.7037
8
root 0.256896 17.0847 1.45251 -3.8314 2.67919 -3.49734
lowerback -12.6109 0.271428 -1.96508
upperback -8.56721 0.559063 -0.574631
thorax -1.9302 0.353236 0.565265
lowerneck 1.56662 -10.8743 -20.5082
upperneck 22.4881 -18.164 16.5459
head 10.3424 -9.23129 7.37532
rclavicle -6.36111e-015 -4.77083e-015
rhumerus 58.1956 -28.2839 -81.9792
rradius 70.7574
rwrist -7.49218
rhand -49.3657 3.26761
rfingers 7.12502
rthumb -21.9802 -25.5035
lclavicle -6.36111e-015 -4.77083e-015
lhumerus 50.1331 15.6935 80.8325
lradius 69.2521
lwrist 30.125
lhand -37.4258 41.974
lfingers 7.12502
lthumb -10.4854 71.6925
rfemur 19.0022 7.85836 25.2144
rtibia -2.8625e-014
rfoot -12.5442 -15.0098
rtoes -17.5445
lfemur 9.21333 -20.2985 -20.2849
ltibia 18.7365
lfoot -22.7146 13.929
ltoes -12.9734
9
root 0.255797 17.0813 1.45683 -3.88698 2.69708 -3.44423
lowerback -12.6755 0.263429 -2.05045
upperback -8.52972 0.558984 -0.593628
thorax -1.85694 0.355298 0.594245
lowerneck 1.62766 -10.8484 -20.5012
upperneck 22.6063 -18.1349 16.4658
head 10.3586 -9.22669 7.35573
rclavicle -1.94809e-014 -7.95139e-015
rhumerus 58.1188 -28.8565 -81.6445
rradius 70.7205
rwrist -7.62917
rhand -49.4628 3.05067
rfingers 7.12502
rthumb -22.0734 -25.7095
lclavicle -1.94809e-014 -7.95139e-015
lhumerus 49.7416 16.1567 80.4294
lradius 69.3812
lwrist 30.1632
lhand -37.4912 42.1746
lfingers 7.12502
lthumb -10.5485 71.8899
rfemur 19.0827 7.83895 25.1661
rtibia 2.54444e-014
rfoot -12.5767 -14.9938
rtoes -17.4452
lfemur 9.31463 -20.2763 -20.3692
ltibia 18.716
lfoot -22.7361 14.0263
ltoes -13.4508
